<svg width="130" height="184" viewBox="0 0 130 184" fill="none" xmlns="http://www.w3.org/2000/svg">
<path fill-rule="evenodd" clip-rule="evenodd" d="M59.373 1.47001C58.557 3.59601 60.91 16.497 62.508 18.662C65.805 23.126 66.248 15.346 63.444 2.25001C62.903 -0.274993 60.239 -0.784994 59.373 1.47001ZM97.938 15.75C93.681 22.451 92.674 27.556 96.016 25.49C97.768 24.407 104 14.305 104 12.548C104 9.46201 100.889 11.106 97.938 15.75ZM18 15.537C18 17.361 29.065 29 30.799 29C33.105 29 31.963 26.446 26.885 20.246C21.968 14.241 18 12.139 18 15.537ZM54.191 36.961C43.948 39.734 37.476 43.466 30.377 50.693C23.519 57.675 20.744 62.776 18.872 71.84C16.548 83.094 20.485 96.595 29.417 108C35.167 115.342 38.99 123.122 39.67 128.865C40.186 133.219 40.031 133.665 37.614 134.766C35.436 135.759 35 136.617 35 139.92C35 142.099 35.39 144.123 35.866 144.417C36.342 144.711 36.514 146.091 36.248 147.482C35.982 148.873 36.318 150.678 36.994 151.493C37.67 152.307 37.958 154.032 37.633 155.325C37.3 156.652 37.644 158.499 38.422 159.563C39.252 160.698 39.593 162.734 39.277 164.678C38.848 167.327 39.301 168.455 41.8 170.954C43.475 172.629 45.772 174 46.904 174C48.243 174 49.173 174.84 49.566 176.405C50.483 180.06 54.348 183.103 58.838 183.705C68.056 184.941 76.884 181.407 77.255 176.333C77.382 174.595 78.237 174.042 81.572 173.542C88.407 172.517 88.991 171.63 89.349 161.75C89.524 156.938 89.966 152.7 90.333 152.334C90.7 151.967 91 149.912 91 147.768C91 145.623 91.425 143.074 91.944 142.104C92.595 140.888 92.415 139.432 91.364 137.42C88.41 131.762 92.437 118.453 101.484 103.968C110.468 89.585 112.354 84.334 111.653 75.656C110.836 65.535 106.691 57.456 97.749 48.56C87.971 38.83 81.799 35.871 70.231 35.364C63.704 35.079 59.655 35.482 54.191 36.961ZM121.25 42.03C118.363 43.686 116 45.495 116 46.052C116 48.073 118.949 48.114 123.177 46.152C130.004 42.983 130.596 42.422 129.063 40.576C127.357 38.521 127.373 38.518 121.25 42.03ZM79 42.214C91.333 46.003 104.22 62.195 105.624 75.666C106.201 81.196 105.951 82.508 103.196 88.395C101.506 92.005 98.806 96.881 97.195 99.23C92.152 106.582 88.138 115.51 85.602 125.013C84.257 130.053 83.009 134.282 82.829 134.412C82.648 134.542 80.362 134.457 77.75 134.223L73 133.799V129.44C73 127.043 73.506 121.576 74.125 117.291C75.07 110.738 75.853 108.705 79.051 104.5C83.682 98.409 88.998 87.425 88.999 83.946C89 79.784 84.186 71.278 80.561 69.038C76.997 66.835 69.228 66.272 66.028 67.985C64.681 68.706 62.922 68.411 59.472 66.884C51.784 63.484 43.855 66.536 40.071 74.353C36.2 82.35 37.563 88.639 45.195 98C52.369 106.799 52.471 107.124 52.199 120.439C52.065 127.005 51.853 132.478 51.728 132.6C51.602 132.722 49.813 133.137 47.75 133.522L44 134.223L43.999 128.361C43.998 121.945 40.51 113.107 35.755 107.475C30.892 101.716 25.885 91.949 24.568 85.656C22.197 74.321 25.279 63.892 33.645 54.949C45.086 42.717 63.662 37.501 79 42.214ZM0 45.549C0 47.517 7.464 50.949 11.809 50.978C16.069 51.006 15.208 49.646 8.962 46.481C3.348 43.636 0 43.288 0 45.549ZM89 54.204C89 55 90.102 56.687 91.449 57.952C94.494 60.813 97 67.95 97 73.761C97 76.847 97.374 78.039 98.25 77.739C99.064 77.46 99.499 75.221 99.497 71.322C99.495 66.409 98.956 64.47 96.497 60.524C93.17 55.184 89 51.669 89 54.204ZM60.161 71.761C60.886 72.486 60.566 73.675 59.116 75.652C55.851 80.104 55.469 84.055 57.994 87.266C60.646 90.637 63.978 90.783 67.581 87.684C69.718 85.846 70.273 84.493 70.273 81.121C70.273 78.784 69.761 76.361 69.136 75.736C66.031 72.631 69.706 70.528 75.46 72.117C77.336 72.635 80.025 74.43 81.436 76.106C86.323 81.914 84.296 89.757 74.559 102.71C69.483 109.463 68.017 114.84 68.006 126.75L68 133H62.5H57V119.64C57 104.767 56.837 104.311 47.859 94.106C42.435 87.939 41.211 83.354 43.435 77.531C45.768 71.423 48.276 69.752 54.309 70.29C56.954 70.525 59.587 71.187 60.161 71.761ZM66.163 78.459C67.061 80.428 66.952 81.424 65.619 83.459C63.715 86.364 62.741 86.598 61.048 84.558C60.107 83.424 60.212 82.356 61.54 79.558C63.528 75.367 64.635 75.104 66.163 78.459ZM29 82.935C29 88.415 30.199 91.148 37.298 101.847C42.884 110.265 43.533 110.92 43.832 108.434C44.067 106.483 43.01 104.037 40.227 100.087C35.124 92.845 32.336 87.31 31.472 82.703C30.555 77.816 29 77.961 29 82.935ZM96.583 84.866C96.152 85.563 96.07 86.403 96.4 86.733C97.295 87.628 98.271 86.312 97.787 84.862C97.449 83.846 97.213 83.846 96.583 84.866ZM45.625 118.798C45.354 119.237 45.545 120.249 46.051 121.048C46.768 122.182 46.973 122.007 46.985 120.25C47 117.937 46.492 117.394 45.625 118.798ZM73.821 137.427C81.698 138.187 88.399 139.066 88.714 139.38C89.028 139.695 88.716 140.638 88.02 141.476C86.953 142.761 83.115 143 63.5 143C45.792 143 39.991 142.694 39.18 141.716C37.082 139.19 39.662 137.656 47.17 136.966C58.303 135.944 58.498 135.947 73.821 137.427ZM86.664 147.567C88.013 151.082 85.468 151.502 63.403 151.41C41.603 151.32 39.059 150.896 40.336 147.567C40.857 146.208 43.937 146 63.5 146C83.063 146 86.143 146.208 86.664 147.567ZM69.5 156.075C76.1 156.088 82.4 155.963 83.5 155.799C85.011 155.573 85.574 156.142 85.805 158.127C86.101 160.688 85.908 160.783 78.113 161.923C72.202 162.787 66.919 162.815 57.855 162.028C45.601 160.964 41 159.471 41 156.56C41 154.526 42.465 154.318 50.384 155.231C54.298 155.682 62.9 156.062 69.5 156.075ZM67.74 165.5C80.699 165.5 84.087 165.781 84.513 166.893C84.807 167.659 84.793 168.541 84.481 168.852C83.593 169.741 52.949 170.603 48.559 169.863C44.706 169.214 41.54 166.553 42.592 164.851C42.883 164.38 45.006 164.334 47.31 164.748C49.615 165.162 58.808 165.5 67.74 165.5ZM73 175.465C73 177.534 70.356 178.699 64 179.43C58.402 180.074 54.092 178.815 53.26 176.293C52.978 175.438 55.141 174.987 60.681 174.745C64.981 174.556 69.513 174.312 70.75 174.201C72.151 174.076 73 174.553 73 175.465Z" fill="black"/>
</svg>
