<svg width="119" height="121" viewBox="0 0 119 121" fill="none" xmlns="http://www.w3.org/2000/svg">
<path d="M61.4707 120.5C42.6183 120.5 28.3928 114.831 18.8789 105.014C9.36232 95.194 4.50008 81.1626 4.5 64.3232C4.5 30.6963 29.8136 3.5 60.9629 3.5C76.5664 3.50008 92.1082 9.72377 103.099 19.8594C114.084 29.9899 120.496 43.9996 117.939 59.5967L117.934 59.6367V59.6768C117.934 93.2917 90.5827 120.5 61.4707 120.5Z" stroke="black"/>
<path d="M118.5 59.0303C118.5 78.3796 112.781 92.9806 102.878 102.745C92.9736 112.511 78.8233 117.5 61.8428 117.5C27.9374 117.5 0.500175 91.5295 0.499995 59.5517C0.499996 43.5353 6.77873 27.5839 17.002 16.3047C27.2203 5.03095 41.3483 -1.54783 57.0752 1.07519L57.1162 1.08203L57.1572 1.08203C91.0509 1.08203 118.5 29.143 118.5 59.0303Z" stroke="#636363"/>
<path d="M3.50001 60.9707C3.50001 41.9473 8.97988 27.5935 18.4639 17.9971C27.9479 8.40077 41.4965 3.50001 57.7559 3.5C90.2139 3.50001 116.5 29.0154 116.5 60.458C116.5 76.2047 110.484 91.8848 100.692 102.971C90.9051 114.051 77.3795 120.512 62.3281 117.936L62.2861 117.929L62.2441 117.929C29.7979 117.929 3.5002 90.3584 3.50001 60.9707Z" stroke="#636363"/>
<path d="M23.0287 38.84H38.4527V39.352L33.2047 39.864V81.976L38.4527 82.488V83H23.0287V82.488L28.2767 81.976V39.864L23.0287 39.352V38.84Z" fill="black"/>
<path d="M103.175 38.84V39.352L99.5912 39.672C98.4392 39.7573 97.6499 39.9707 97.2233 40.312C96.7966 40.6107 96.4339 41.2507 96.1353 42.232L83.3993 84.024H82.3752L71.1752 52.152L61.4472 84.024H60.4232L44.8712 39.864L39.6232 39.352V38.84H55.6232V39.352L50.0552 39.864L62.6632 75.832H62.9192L70.5992 50.616L66.8232 39.864L61.5752 39.352V38.84H77.5752V39.352L72.0072 39.864L84.6152 75.832H84.8713L95.1113 42.232C95.2393 41.7627 95.3033 41.3573 95.3033 41.016C95.3033 40.5467 95.1752 40.2267 94.9193 40.056C94.6632 39.8427 94.1726 39.7147 93.4473 39.672L89.5433 39.352V38.84H103.175Z" fill="black"/>
</svg>
