<svg width="433" height="375" viewBox="0 0 433 375" fill="none" xmlns="http://www.w3.org/2000/svg">
<path fill-rule="evenodd" clip-rule="evenodd" d="M354.268 0.402285C353.965 0.892285 355.913 2.70128 358.596 4.42328C367.999 10.4573 375.47 19.9093 378.683 29.8383C379.548 32.5113 380.244 33.3623 380.972 32.6343C382.314 31.2923 379.58 23.8613 375.207 16.9663C370.137 8.97328 355.921 -2.27272 354.268 0.402285ZM334.71 17.5443C323.435 19.1103 313.806 20.4153 313.313 20.4443C312.177 20.5103 313.247 39.4333 314.455 40.6413C314.945 41.1313 326.565 41.4113 340.278 41.2643L365.21 40.9963L364.95 33.9963C364.807 30.1463 364.434 24.1843 364.121 20.7463L363.551 14.4963L359.38 14.5963C357.087 14.6513 345.985 15.9783 334.71 17.5443ZM357.71 25.4963C357.71 26.0463 356.023 26.4983 353.96 26.5013C351.898 26.5043 345.71 26.7923 340.21 27.1403C334.388 27.5103 330.556 27.4033 331.039 26.8853C331.775 26.0953 341.157 25.1683 353.46 24.6683C355.797 24.5743 357.71 24.9463 357.71 25.4963ZM324.699 26.9833C325.407 27.8363 325.664 29.5423 325.303 30.9833C324.51 34.1433 320.302 34.4703 318.71 31.4963C316.457 27.2873 321.683 23.3493 324.699 26.9833ZM288.23 30.6663C282.191 31.1553 276.887 31.9193 276.443 32.3633C275.268 33.5383 261.71 59.6533 261.71 60.7423C261.71 63.6933 264.783 59.3813 270.766 48.0353C274.499 40.9563 278.15 34.8433 278.881 34.4513C279.612 34.0593 285.385 33.4413 291.71 33.0783C306.23 32.2453 311.71 31.5063 311.71 30.3823C311.71 29.3353 303.413 29.4353 288.23 30.6663ZM344.21 31.4963C343.87 32.0463 341.819 32.4963 339.651 32.4963C337.483 32.4963 335.71 32.0463 335.71 31.4963C335.71 30.9463 337.762 30.4963 340.269 30.4963C343.054 30.4963 344.588 30.8853 344.21 31.4963ZM392.21 56.5443C383.96 56.9263 375.78 57.2963 374.031 57.3673C368.153 57.6063 367.71 58.9203 367.71 76.1333C367.71 84.9013 368.159 92.4673 368.745 93.5623C369.721 95.3863 371.058 95.4963 392.188 95.4963C414.211 95.4963 414.623 95.4583 416.153 93.2733C418.343 90.1473 418.39 75.4963 416.21 75.4963C414.995 75.4963 414.71 77.1053 414.71 83.9773C414.71 91.9423 414.573 92.4923 412.46 93.0113C411.222 93.3153 401.435 93.4363 390.71 93.2803L371.21 92.9963L370.936 76.8213C370.685 62.0523 370.815 60.6023 372.436 60.1423C373.412 59.8653 383.323 59.3293 394.46 58.9513L414.71 58.2643V64.3803C414.71 69.1503 415.04 70.4963 416.21 70.4963C417.372 70.4963 417.71 69.1803 417.71 64.6513C417.71 57.6963 415.9 55.4003 410.631 55.6733C408.75 55.7713 400.46 56.1633 392.21 56.5443ZM334.71 59.1113C333.335 59.2853 322.985 59.8903 311.71 60.4553C226.367 64.7343 180.558 67.3143 179.998 67.8753C179.763 68.1103 178.089 81.2833 176.277 97.1493C173.416 122.214 173.148 129.391 175.15 127.389C175.411 127.128 176.635 117.631 177.872 106.284L180.119 85.6523L189.164 85.0973C203.021 84.2473 328.305 79.4473 335.96 79.4733L342.71 79.4963V82.9963C342.71 84.9213 343.16 86.4963 343.71 86.4963C344.26 86.4963 344.722 86.1583 344.736 85.7463C344.75 85.3343 345.598 79.3713 346.62 72.4963C347.642 65.6213 348.278 59.6593 348.035 59.2463C347.61 58.5273 339.949 58.4503 334.71 59.1113ZM345.327 64.2463C345.029 65.7593 344.493 69.1343 344.134 71.7463C343.545 76.0433 343.232 76.4973 340.846 76.5053C339.396 76.5113 327.185 76.9603 313.71 77.5043C249.928 80.0773 214.722 81.4823 198.345 82.1083L180.479 82.7913L181.207 76.3933C181.607 72.8753 181.997 69.9343 182.072 69.8593C182.355 69.5773 330.528 61.7603 338.039 61.6313L345.869 61.4963L345.327 64.2463ZM393.896 67.7463C388.616 81.9103 386.49 88.6103 387.087 89.2073C387.448 89.5673 388.125 89.4433 388.592 88.9293C389.589 87.8323 397.71 65.3053 397.71 63.6363C397.71 60.7823 395.675 62.9753 393.896 67.7463ZM109.343 64.2823C109.037 64.7753 110.385 66.7133 112.337 68.5883C116.268 72.3643 119.101 77.3043 120.167 82.2463C120.553 84.0333 121.342 85.4963 121.921 85.4963C123.804 85.4963 121.994 77.4893 119.042 72.7553C115.978 67.8443 110.239 62.8303 109.343 64.2823ZM120.741 64.2463C120.758 64.6583 121.881 66.7963 123.236 68.9963C124.591 71.1963 125.702 73.7573 125.705 74.6873C125.71 76.5133 127.47 78.0693 128.437 77.1033C129.381 76.1583 126.909 69.0193 124.638 66.1313C122.656 63.6123 120.675 62.6543 120.741 64.2463ZM304.21 69.0293C294.86 69.7283 282.935 70.3513 277.71 70.4133C268.773 70.5203 264.392 71.5113 265.953 73.0733C266.33 73.4493 276.667 73.1993 288.924 72.5163C318.161 70.8883 325.21 70.2043 325.21 68.9963C325.21 67.5923 323.396 67.5953 304.21 69.0293ZM379.94 72.2783C377.042 74.8733 374.687 77.4463 374.707 77.9963C374.741 78.9033 384.17 83.5163 385.96 83.5023C387.888 83.4873 386.33 81.6513 382.616 79.5633L378.523 77.2633L382.616 73.0913C386.57 69.0633 387.533 67.4613 385.96 67.5283C385.547 67.5453 382.839 69.6833 379.94 72.2783ZM398.239 70.4503C397.876 71.0363 398.959 72.6763 400.645 74.0953C402.331 75.5133 403.707 76.9713 403.702 77.3353C403.698 77.6993 401.849 79.0503 399.594 80.3383C396.921 81.8653 395.835 83.0213 396.472 83.6583C397.11 84.2963 399.252 83.5293 402.627 81.4523C407.453 78.4823 407.71 78.1283 406.431 76.2023C404.253 72.9223 398.993 69.2293 398.239 70.4503ZM216.91 71.6963C213.745 74.8613 216.918 80.1143 220.596 77.7983C222.854 76.3763 223.099 74.0283 221.189 72.1173C219.252 70.1813 218.499 70.1073 216.91 71.6963ZM82.7102 72.6233C69.9592 73.4153 69.0852 73.6043 66.9602 76.0343C64.9522 78.3313 64.7102 79.6713 64.7102 88.4873C64.7102 99.7573 65.6202 103.042 69.1902 104.669C71.0042 105.495 71.7102 106.596 71.7102 108.597C71.7102 112.827 73.5212 113.071 77.3542 109.358L80.8252 105.996L94.5182 106.35C111.938 106.801 111.216 107.456 112.123 90.3723C112.792 77.7623 112.79 77.7443 110.162 74.6223C107.17 71.0653 107.467 71.0873 82.7102 72.6233ZM191.285 73.4133C188.031 77.0093 193.079 81.7273 196.51 78.2963C198.14 76.6663 198.018 74.9463 196.139 73.0673C194.107 71.0363 193.39 71.0873 191.285 73.4133ZM203.79 72.9003C202.29 74.7073 203.177 78.0773 205.375 78.9213C207.702 79.8143 209.856 77.5543 209.511 74.5823C209.159 71.5583 205.738 70.5523 203.79 72.9003ZM106.71 83.4063C106.71 84.3773 75.8972 85.4493 74.2102 84.5373C73.6602 84.2393 77.9352 83.7473 83.7102 83.4423C101.966 82.4783 106.71 82.4713 106.71 83.4063ZM96.4622 92.9143C96.7822 93.2343 92.4422 93.4963 86.8182 93.4963C81.1942 93.4963 76.8002 93.1583 77.0552 92.7463C77.5882 91.8823 95.5862 92.0383 96.4622 92.9143ZM341.38 93.1453C341.089 94.1633 338.037 115.696 334.597 140.996C331.158 166.296 328.313 187.071 328.277 187.162C328.24 187.253 292.323 187.657 248.46 188.061L168.71 188.794L168.739 185.895C168.755 184.301 170.018 172.957 171.547 160.687C173.929 141.569 174.088 135.785 172.18 137.693C171.77 138.103 165.71 186.071 165.71 188.906C165.71 190.34 171.177 190.496 221.58 190.496H277.45L274.611 206.716C273.05 215.637 271.497 224.187 271.162 225.716L270.551 228.496H242.131H213.71V233.956V239.415L205.54 239.706C200.111 239.899 197.232 240.415 196.957 241.246C196.629 242.237 209.006 242.496 256.627 242.496H316.71V240.136C316.71 238.837 316.996 235.687 317.346 233.136L317.982 228.496H295.846C281.445 228.496 273.71 228.139 273.71 227.474C273.71 226.913 275.06 218.822 276.71 209.496C278.36 200.17 279.71 192.079 279.71 191.518C279.71 190.849 288.34 190.496 304.651 190.496C318.369 190.496 329.815 190.135 330.088 189.693C330.499 189.028 337.71 139.344 337.71 137.179C337.71 136.803 353.94 136.496 373.777 136.496C407.664 136.496 409.813 136.602 409.311 138.246C407.515 144.141 394.726 204.845 395.184 205.303C396.59 206.709 397.922 201.931 404.612 171.496C408.541 153.621 412.023 137.984 412.349 136.746C412.938 134.517 412.846 134.496 402.327 134.496H391.71V116.913C391.71 103.291 391.428 99.4233 390.46 99.7453C389.539 100.051 389.138 104.715 388.936 117.485L388.661 134.81L364.069 134.203C350.544 133.87 339.238 133.357 338.945 133.064C338.651 132.771 339.638 123.692 341.136 112.889C342.908 100.114 343.52 92.9063 342.885 92.2713C342.25 91.6363 341.724 91.9423 341.38 93.1453ZM200.836 105.008C200.221 109.139 198.806 120.277 197.691 129.758C194.818 154.19 192.615 172.762 192.397 174.392C192.294 175.16 192.719 175.967 193.341 176.186C194.813 176.703 195.095 174.959 198.71 142.996C201.605 117.396 203.035 106.473 204.307 100.246C204.716 98.2473 204.471 97.4963 203.411 97.4963C202.362 97.4963 201.64 99.6053 200.836 105.008ZM187.281 100.067C183.411 103.938 187.921 111.059 192.643 108.532C195.443 107.033 195.532 101.007 192.776 99.5313C190.148 98.1253 189.124 98.2253 187.281 100.067ZM243.71 101.682C225.835 102.169 210.572 102.79 209.793 103.064C208.943 103.363 208.742 103.916 209.293 104.448C209.825 104.962 222.588 104.969 239.71 104.463C255.935 103.984 271.61 103.571 274.543 103.544C278.35 103.51 279.757 103.138 279.46 102.246C278.922 100.627 281.187 100.663 243.71 101.682ZM308.919 107.327C307.451 111.537 304.063 112.079 302.164 108.408C301.336 106.806 300.325 105.496 299.916 105.496C299.508 105.496 297.483 106.645 295.417 108.049L291.66 110.602L293.362 113.484C295.541 117.174 293.928 119.496 289.185 119.496C286.406 119.496 285.738 119.976 284.808 122.645C283.253 127.104 283.367 127.48 286.61 128.611C290.525 129.976 291.249 133.097 288.125 135.144C285.247 137.03 285.103 139.189 287.654 142.246C289.686 144.683 292.638 145.168 294.443 143.363C296.584 141.222 298.71 143.207 298.71 147.348C298.71 150.562 299.113 151.371 300.96 151.866C305.535 153.092 307.651 152.58 308.274 150.097C309.138 146.654 313.207 146.079 315.198 149.118C316.706 151.419 316.783 151.429 320.311 149.747C323.669 148.145 323.856 147.811 323.308 144.384C322.613 140.036 324.307 138.106 328.005 139.034C330.935 139.769 331.42 139.164 332.298 133.673C332.907 129.862 332.754 129.463 330.334 128.543C327.164 127.338 327.024 125.855 329.804 122.896C332.063 120.491 331.853 118.519 328.936 114.741C327.366 112.709 326.883 112.604 324.032 113.68C319.835 115.265 317.343 113.442 318.224 109.432C318.911 106.306 318.589 106.007 313.567 105.102C310.205 104.496 309.846 104.668 308.919 107.327ZM315.39 110.348C314.918 112.707 315.347 113.591 317.874 115.459C320.427 117.347 321.329 117.535 323.366 116.607C326.53 115.165 326.454 115.148 327.76 117.59C328.683 119.315 328.499 120.091 326.719 121.986C323.808 125.085 324.266 129.862 327.519 130.323C329.371 130.586 329.767 131.18 329.519 133.323C329.265 135.523 328.742 135.965 326.563 135.822C324.908 135.713 323.084 136.534 321.695 138.012C319.789 140.041 319.622 140.806 320.523 143.391C321.453 146.059 321.332 146.481 319.468 147.073C318.077 147.514 316.96 147.191 316.176 146.119C315.452 145.129 313.549 144.496 311.298 144.496C308.126 144.496 307.464 144.903 306.598 147.387C305.265 151.212 301.71 150.606 301.71 146.554C301.71 144.988 300.698 142.894 299.312 141.592C297.031 139.449 296.765 139.416 293.85 140.923C290.942 142.427 290.731 142.403 289.684 140.447C288.759 138.719 288.98 138.072 291.052 136.442C293.302 134.671 293.427 134.183 292.441 130.972C291.715 128.606 290.594 127.254 289.035 126.863C284.873 125.818 286.497 121.996 291.102 121.996C293.043 121.996 294.625 121.151 295.913 119.426C297.579 117.194 297.664 116.49 296.56 114.067C295.441 111.611 295.517 111.11 297.196 109.883C298.913 108.627 299.285 108.776 300.939 111.389C302.673 114.128 302.974 114.228 306.343 113.194C308.529 112.523 310.249 111.208 310.785 109.797C311.324 108.381 312.487 107.496 313.81 107.496C315.641 107.496 315.875 107.92 315.39 110.348ZM54.2482 115.995C52.0692 116.771 49.4922 118.439 48.5212 119.701C46.1012 122.845 46.2252 128.61 48.7832 131.861L50.8552 134.496L47.0332 134.528C44.4452 134.549 42.3212 135.341 40.4602 136.98C38.9482 138.311 37.7102 139.647 37.7102 139.948C37.7102 141.137 41.5382 140.408 42.7102 138.996C43.3952 138.171 45.0652 137.496 46.4212 137.496H48.8882L46.2992 140.573C41.0102 146.858 44.3302 154.858 53.5902 158.147C58.0302 159.724 58.2892 160.012 57.8742 162.911C57.3402 166.651 57.2712 166.7 46.9272 170.635C37.5682 174.196 34.8982 176.705 31.8792 184.774C29.3202 191.613 28.9632 193.701 30.2712 194.163C30.8552 194.368 32.0962 192.113 33.0292 189.152C36.3242 178.701 39.7572 175.614 53.1432 171.063L58.5542 169.224L66.1682 175.397C70.3552 178.792 74.1562 181.338 74.6142 181.055C75.0722 180.772 75.7372 178.73 76.0902 176.518C76.4682 174.155 77.2832 172.496 78.0672 172.496C79.9772 172.496 90.6412 179.567 94.3792 183.313C98.4442 187.385 105.71 198.485 105.71 200.621C105.71 201.904 104.288 202.415 99.2102 202.959L92.7102 203.655V208.502C92.7102 212.941 92.4442 213.482 89.5562 214.923C87.8222 215.788 86.3422 216.496 86.2682 216.496C86.1932 216.496 86.4432 213.234 86.8222 209.246C87.4482 202.66 86.7412 199.132 85.1202 200.753C84.7772 201.096 84.2562 205.226 83.9622 209.931C83.6332 215.218 82.9242 218.904 82.1062 219.582C80.7872 220.677 63.1222 223.404 56.9602 223.464C53.7702 223.495 53.7102 223.413 53.7102 218.996C53.7102 214.892 53.9252 214.496 56.1512 214.496C57.4942 214.496 58.8632 214.057 59.1952 213.52C60.3742 211.612 61.0122 202.496 59.9662 202.496C58.8482 202.496 57.7452 205.762 57.7242 209.139C57.7092 211.398 55.9772 212.489 52.3782 212.507C51.1862 212.512 45.0352 213.805 38.7102 215.379C32.3852 216.953 27.1182 218.169 27.0062 218.081C26.8002 217.92 27.9492 209.575 29.2562 201.746C29.7262 198.93 29.6012 197.496 28.8852 197.496C27.3172 197.496 25.8032 203.773 25.0492 213.404C24.3962 221.738 24.4102 221.808 26.6112 221.232C30.0482 220.333 30.1032 220.7 30.5412 247.271C30.7032 257.128 30.8082 257.583 33.1122 258.459C34.6532 259.045 35.9512 260.739 36.7332 263.184C38.9832 270.216 45.0512 280.708 50.0022 286.125C54.1742 290.69 54.5962 291.496 52.8102 291.496C50.8632 291.496 50.7102 292.043 50.7102 298.996V306.496H54.2412C56.1992 306.496 57.9412 307.053 58.1502 307.746C58.3572 308.434 60.8722 321.529 63.7382 336.846C66.6052 352.164 69.1662 365.525 69.4312 366.538C69.8422 368.107 69.2092 368.424 65.1392 368.687C62.4502 368.861 60.1872 369.542 59.9552 370.246C59.6312 371.229 66.6242 371.496 92.7102 371.496C118.799 371.496 125.788 371.229 125.46 370.246C125.144 369.297 118.671 368.932 98.5852 368.73L72.1252 368.464L70.4032 358.73C69.4572 353.376 66.8952 339.771 64.7122 328.496C62.5282 317.221 60.7352 307.659 60.7262 307.246C60.7172 306.833 72.0122 306.496 85.8272 306.496C109.255 306.496 110.913 306.614 110.486 308.246C110.235 309.208 108.065 322.241 105.664 337.207C101.842 361.029 101.295 367.244 103.186 365.353C103.448 365.091 105.813 351.854 108.442 335.936L113.222 306.996L119.368 306.701L125.515 306.406L128.559 315.701C130.233 320.813 134.085 333.546 137.119 343.996C144.642 369.908 144.849 370.496 146.485 370.496C147.446 370.496 147.7 369.914 147.25 368.746C146.46 366.695 139.689 344.143 133.666 323.496C131.34 315.521 129.225 308.434 128.966 307.746C128.645 306.893 129.62 306.496 132.034 306.496H135.573L133.051 298.996L130.529 291.496L94.8702 291.277L59.2102 291.057L87.3042 290.527L115.398 289.996L120.02 286.207C122.562 284.123 126.078 280.419 127.833 277.975C131.397 273.011 133.395 272.027 138.108 272.911C143.126 273.852 156.037 282.895 166.08 292.502C171.102 297.306 180.786 305.878 187.6 311.552L199.99 321.868L201.917 319.489L203.843 317.11L207.854 321.803C212.748 327.528 215.042 327.761 223.319 323.373C236.245 316.52 241.84 310.631 240.233 305.569C238.998 301.677 236.1 301.08 227.727 302.992C220.522 304.638 219.89 304.64 216.798 303.042C213.553 301.363 213.379 300.662 215.148 296.391C216.425 293.309 185.738 268.791 158.324 250.99C148.813 244.814 145.089 241.902 146.439 241.696C148.244 241.421 148.458 240.288 149.057 227.788C149.416 220.304 149.71 210.876 149.71 206.838V199.496H146.21C144.285 199.496 142.71 199.072 142.71 198.553C142.71 198.034 145.458 194.425 148.817 190.532C154.403 184.058 154.87 183.161 154.283 180.035C153.9 177.992 152.419 175.587 150.602 174.058L147.561 171.5L150.636 166.126C153.778 160.634 154.498 157.101 152.701 155.99C150.568 154.672 147.645 156.839 142.842 163.295C140.1 166.98 135.83 171.679 133.353 173.737C129.101 177.27 126.825 180.945 128.101 182.22C128.416 182.536 130.408 180.84 132.526 178.453C136.169 174.348 136.561 174.164 139.716 175.069C144.478 176.435 144.636 178.302 140.022 178.682C136.606 178.963 136.21 179.282 136.21 181.746C136.21 183.258 136.657 184.383 137.203 184.246C137.749 184.109 138.067 183.434 137.909 182.746C137.452 180.756 140.425 181.299 140.949 183.301C141.208 184.294 142.835 185.791 144.564 186.628L147.707 188.15L145.111 190.573C143.683 191.906 141.683 194.619 140.666 196.602L138.817 200.207L130.013 200.761C125.171 201.065 121.056 201.164 120.869 200.98C120.681 200.797 122.144 197.757 124.119 194.225C127.537 188.114 128.598 184.482 126.96 184.508C126.548 184.514 124.222 188.339 121.792 193.008C118.41 199.506 116.886 201.499 115.292 201.51C114.147 201.517 112.197 201.795 110.96 202.126C109.201 202.598 108.71 202.312 108.71 200.816C108.71 198.099 98.7922 183.33 96.5782 182.751C95.5632 182.486 94.9552 181.909 95.2262 181.47C95.8762 180.418 89.6472 175.571 82.4602 171.534C77.6532 168.834 76.7102 167.858 76.7102 165.575C76.7102 163.924 77.7372 161.886 79.3072 160.42C83.8462 156.184 87.7102 145.804 87.7102 137.848C87.7102 130.48 82.0422 125.496 73.6632 125.496C69.6762 125.496 69.5702 125.411 70.1682 122.685C70.9272 119.229 68.8892 117.154 63.2102 115.601C58.4192 114.291 59.1182 114.26 54.2482 115.995ZM302.947 118.493C298.172 121.404 296.06 126.382 297.525 131.271C299.835 138.981 307.048 142.328 314.122 138.971C322.738 134.882 323.031 122.299 314.611 117.945C310.756 115.951 306.812 116.136 302.947 118.493ZM184.281 120.067C182.416 121.932 182.227 125.613 183.91 127.296C184.57 127.956 186.381 128.496 187.935 128.496C192.903 128.496 193.888 120.93 189.156 119.114C186.757 118.193 186.009 118.34 184.281 120.067ZM221.46 119.241C207.21 119.783 211.196 121.496 226.71 121.496C238.488 121.496 240.71 121.258 240.71 119.996C240.71 118.827 239.551 118.541 235.46 118.702C232.573 118.815 226.273 119.057 221.46 119.241ZM250.954 119.746C251.46 121.287 256.733 121.87 262.434 121.015C269.482 119.958 267.273 118.496 258.627 118.496C252.608 118.496 250.648 118.815 250.954 119.746ZM270.71 119.996C270.71 121.229 271.497 121.547 273.96 121.309C275.748 121.137 277.21 120.546 277.21 119.996C277.21 119.446 275.748 118.855 273.96 118.683C271.497 118.445 270.71 118.763 270.71 119.996ZM211.96 134.228C209.622 134.439 207.71 135.035 207.71 135.553C207.71 136.627 231.116 136.841 240.563 135.854C251.829 134.676 246.899 133.494 231.46 133.671C223.073 133.767 214.298 134.018 211.96 134.228ZM254.46 134.277C250.494 134.785 251.072 136.496 255.21 136.496C257.135 136.496 258.71 136.073 258.71 135.555C258.71 134.209 257.599 133.875 254.46 134.277ZM265.71 136.059C265.71 137.215 266.538 137.541 268.883 137.309C273.467 136.857 273.812 134.496 269.293 134.496C266.71 134.496 265.71 134.932 265.71 136.059ZM181.91 139.696C181.25 140.356 180.71 142.066 180.71 143.496C180.71 146.64 182.38 148.496 185.21 148.496C188.084 148.496 189.71 146.629 189.71 143.331C189.71 139.312 184.652 136.954 181.91 139.696ZM66.8972 141.152C71.1292 142.536 72.5202 142.605 75.3832 141.57C77.8842 140.665 79.1642 140.628 80.1322 141.431C80.8602 142.036 82.2112 142.241 83.1342 141.887C84.8852 141.215 84.8802 141.638 83.0482 149.246L82.3862 151.996L81.7882 148.996C81.1032 145.558 79.2102 145.375 79.2102 148.746C79.2102 149.984 78.8152 151.283 78.3322 151.634C76.9212 152.66 78.6202 154.468 80.3662 153.798C81.7442 153.269 81.7202 153.551 80.1932 155.882C76.9662 160.807 72.9872 161.784 69.8542 158.421C68.5352 157.004 67.6982 156.707 67.2182 157.484C66.2842 158.995 69.3662 162.305 72.0642 162.69C73.4562 162.888 74.3302 163.842 74.5502 165.403C75.0532 168.959 73.7372 176.496 72.6142 176.496C72.0782 176.496 68.9792 174.366 65.7262 171.763C59.8222 167.039 59.8132 167.023 60.3262 162.513C60.6082 160.029 61.0702 156.877 61.3532 155.51C61.8062 153.316 61.9802 153.228 62.8382 154.76C63.9402 156.73 67.1992 157.188 66.2942 155.246C65.9732 154.559 65.4342 153.209 65.0942 152.246C64.7552 151.283 63.8022 150.496 62.9772 150.496C61.9212 150.496 61.6482 149.841 62.0552 148.283C62.4032 146.955 62.0012 145.37 61.0512 144.32C59.6252 142.745 59.7532 139.496 61.2412 139.496C61.5672 139.496 64.1122 140.241 66.8972 141.152ZM340.71 142.496C340.71 143.09 344.462 143.497 349.96 143.499C355.047 143.5 368.255 143.794 379.311 144.153L399.412 144.804L397.992 152.4C396.295 161.478 389.79 190.993 385.573 208.746L382.544 221.496H332.686C304.623 221.496 282.588 221.107 282.278 220.606C281.975 220.116 282.617 215.504 283.703 210.356C286.063 199.174 286.043 199.496 284.404 199.496C283.551 199.496 282.483 202.705 281.327 208.746C280.353 213.834 279.309 219.233 279.008 220.746L278.46 223.496H331.518C381.185 223.496 384.608 223.384 385.092 221.746C388.431 210.448 402.782 143.421 402.098 142.315C401.344 141.094 340.71 141.273 340.71 142.496ZM244.21 148.529C232.11 148.921 218.01 149.3 212.877 149.369C206.504 149.456 203.661 149.85 203.915 150.611C204.581 152.608 274.21 151.008 274.21 148.996C274.21 147.714 270.908 147.663 244.21 148.529ZM74.9282 155.65C75.1742 156.391 76.1782 157.151 77.1582 157.342C78.2982 157.562 78.7792 157.202 78.4922 156.342C78.2462 155.601 77.2422 154.841 76.2622 154.65C75.1222 154.43 74.6412 154.79 74.9282 155.65ZM341.366 159.986C341.005 162.62 340.71 166.27 340.71 168.096V171.417L361.309 171.707C372.639 171.866 382.267 171.771 382.705 171.496C383.773 170.825 385.689 158.185 384.857 157.292C384.496 156.904 374.711 156.274 363.112 155.892L342.023 155.196L341.366 159.986ZM151.543 159.305C151.36 159.75 149.463 163.067 147.327 166.677C144.313 171.771 143.027 173.13 141.577 172.751C140.55 172.482 139.71 172.081 139.71 171.858C139.71 170.814 150.012 158.496 150.885 158.496C151.43 158.496 151.727 158.86 151.543 159.305ZM179.953 161.653C178.263 163.343 178.383 167.98 180.155 169.45C184.048 172.682 190.097 167.232 187.309 163.005C185.743 160.633 181.714 159.892 179.953 161.653ZM206.46 162.21C197.612 162.947 201.564 164.496 212.293 164.496C220.313 164.496 222.777 164.193 222.464 163.246C222.032 161.935 215.127 161.488 206.46 162.21ZM236.96 162.247C228.128 162.734 229.172 164.496 238.293 164.496C243.703 164.496 245.763 164.156 245.481 163.309C244.995 161.852 244.725 161.818 236.96 162.247ZM262.96 162.158C262.273 162.436 261.71 163.093 261.71 163.62C261.71 165.107 277.962 164.259 278.463 162.746C278.77 161.817 276.991 161.516 271.543 161.575C267.51 161.618 263.648 161.881 262.96 162.158ZM147.672 180.398C145.768 181.995 144.021 183.118 143.789 182.895C143.022 182.153 148.031 177.496 149.597 177.496C150.538 177.496 149.793 178.621 147.672 180.398ZM42.2672 182.029C40.9772 183.421 39.6152 186.234 39.2412 188.279C38.8682 190.323 37.9252 192.985 37.1472 194.194C36.3692 195.403 36.1172 196.63 36.5872 196.92C38.0682 197.835 40.5552 194.143 41.5992 189.481C42.1962 186.817 43.6402 184.102 45.1572 182.794C48.1012 180.255 48.3322 179.496 46.1622 179.496C45.3112 179.496 43.5582 180.636 42.2672 182.029ZM152.71 181.341C152.71 182.681 149.119 185.572 148.377 184.829C148.008 184.46 148.451 183.334 149.363 182.327C151.112 180.395 152.71 179.924 152.71 181.341ZM336.377 186.163C334.403 188.136 337.536 188.496 356.71 188.496C374.71 188.496 377.71 188.282 377.71 186.996C377.71 185.712 374.784 185.496 357.377 185.496C346.193 185.496 336.743 185.796 336.377 186.163ZM4.14322 191.003C3.26622 193.101 1.82522 199.967 0.94122 206.26C-1.60978 224.409 1.02522 242.149 8.84022 259.427C10.7962 263.751 12.0792 265.527 12.7572 264.849C13.4362 264.17 12.7822 261.736 10.7612 257.418C3.05122 240.942 0.77422 219.263 4.68822 199.604C7.03322 187.827 6.82722 184.578 4.14322 191.003ZM72.3152 201.083C71.6012 202.945 73.6452 209.496 74.9402 209.496C76.1132 209.496 75.1712 200.15 73.9582 199.745C73.4072 199.562 72.6682 200.164 72.3152 201.083ZM146.71 220.812V239.128L135.42 240.816C129.211 241.744 118.608 243.852 111.859 245.5C105.111 247.148 99.1662 248.496 98.6492 248.496C98.1332 248.496 97.7102 245.864 97.7102 242.648V236.8L101.731 234.986C106.067 233.031 107.052 231.019 107.113 223.996C107.174 217.014 106.39 216.137 100.689 216.812L95.7102 217.402V211.449V205.496L98.9602 205.422C100.747 205.381 109.635 204.766 118.71 204.055C127.785 203.344 137.798 202.702 140.96 202.629L146.71 202.496V220.812ZM304.71 204.496C304.71 205.144 317.024 205.496 339.651 205.496C361.866 205.496 374.817 205.132 375.21 204.496C375.618 203.836 363.72 203.496 340.269 203.496C317.23 203.496 304.71 203.848 304.71 204.496ZM398.956 209.746C399.218 210.537 401.817 211.104 406.04 211.292L412.71 211.587V233.914V256.24L408.96 256.847C397.053 258.772 390.023 273.348 395.666 284.41C403.021 298.826 423.571 298.744 430.577 284.27C435.65 273.791 430.275 261.009 419.18 257.17L415.21 255.796L414.942 232.146L414.674 208.496H406.609C400.603 208.496 398.649 208.815 398.956 209.746ZM393.442 211.159C393.171 211.619 392.155 215.709 391.185 220.246L389.421 228.496H354.653H319.886L319.244 232.746C318.892 235.084 318.366 238.234 318.077 239.746L317.551 242.496H357.631C383.684 242.496 397.71 242.146 397.71 241.496C397.71 240.946 395.46 240.496 392.71 240.496C389.96 240.496 387.71 240.308 387.71 240.079C387.71 239.85 388.545 237.712 389.565 235.329C392.279 228.988 395.933 212.319 394.846 211.232C394.345 210.731 393.714 210.698 393.442 211.159ZM50.7102 219.536C50.7102 222.119 49.9242 224.64 48.5312 226.524C45.6702 230.394 47.1762 231.814 50.2972 228.188C51.6262 226.644 53.1672 225.66 53.7202 226.002C54.2742 226.345 60.4612 225.891 67.4692 224.994C77.0572 223.766 81.2382 222.764 84.3622 220.944C88.3772 218.606 88.4972 218.594 87.9772 220.582C87.4822 222.477 87.7432 222.582 91.3252 221.927C93.4622 221.536 96.2522 220.829 97.5252 220.356C98.7982 219.883 100.823 219.541 102.025 219.596C103.227 219.651 101.519 220.564 98.2312 221.625C94.9422 222.686 91.8152 223.991 91.2812 224.525C89.7712 226.035 94.8492 225.711 99.7402 223.985C102.095 223.154 104.239 222.692 104.505 222.957C105.071 223.524 100.952 225.171 94.9602 226.774C92.6222 227.399 90.7102 228.501 90.7102 229.222C90.7102 230.635 93.0232 230.299 100 227.874C102.085 227.149 103.559 226.931 103.276 227.389C102.993 227.847 100.612 228.8 97.9862 229.506C95.3592 230.213 92.8332 231.124 92.3732 231.531C90.5582 233.134 93.7262 233.396 98.2972 232.02C104.415 230.179 105.11 230.719 99.5072 232.961C96.3772 234.213 92.7912 234.618 86.2152 234.464C74.0072 234.176 72.7102 234.3 72.7112 235.746C72.7132 236.67 75.5792 236.996 83.7082 236.996C94.4162 236.996 94.7042 237.054 94.7072 239.227C94.7102 241.68 93.8572 241.994 84.4032 243.022C77.0562 243.822 77.3992 245.303 85.5322 247.905C88.9302 248.992 91.7102 250.189 91.7102 250.565C91.7102 251.442 83.8042 254.818 76.7102 256.971C68.3522 259.508 52.8342 260.046 42.8222 258.146C38.2092 257.271 34.2542 256.373 34.0332 256.152C33.8122 255.931 33.3522 251.796 33.0102 246.963L32.3902 238.176L34.5502 240.336C37.1612 242.947 41.6542 243.119 53.3722 241.057C64.3522 239.124 69.7102 237.616 69.7102 236.457C69.7102 235.228 67.1622 235.243 62.6392 236.499C55.1232 238.587 39.4852 240.446 37.6582 239.468C35.8512 238.501 33.4662 231.639 32.2262 223.837L31.5652 219.679L39.8882 217.694C51.2462 214.985 50.7102 214.894 50.7102 219.536ZM119.76 220.255C117.09 222.416 117.878 225.249 121.394 226.132C126.902 227.514 131.395 222.003 126.776 219.531C124.024 218.058 122.246 218.242 119.76 220.255ZM35.1902 224.713C34.3742 226.809 35.8912 231.723 37.5232 232.267C39.1152 232.798 39.0212 230.459 37.2852 226.361C36.1412 223.661 35.7272 223.335 35.1902 224.713ZM332.522 235.761C332.92 237.827 330.034 239.22 328.51 237.696C326.986 236.172 328.379 233.286 330.445 233.684C331.403 233.868 332.338 234.803 332.522 235.761ZM378.71 235.996C378.71 238.186 378.277 238.496 375.21 238.496C372.143 238.496 371.71 238.186 371.71 235.996C371.71 233.806 372.143 233.496 375.21 233.496C378.277 233.496 378.71 233.806 378.71 235.996ZM373.21 235.496C372.858 236.065 373.719 236.496 375.21 236.496C376.701 236.496 377.562 236.065 377.21 235.496C376.87 234.946 375.97 234.496 375.21 234.496C374.45 234.496 373.55 234.946 373.21 235.496ZM345.46 236.185C344.498 236.437 342.922 236.437 341.96 236.185C340.998 235.934 341.785 235.728 343.71 235.728C345.635 235.728 346.422 235.934 345.46 236.185ZM359.46 236.185C358.498 236.437 356.922 236.437 355.96 236.185C354.998 235.934 355.785 235.728 357.71 235.728C359.635 235.728 360.422 235.934 359.46 236.185ZM95.7102 246.603C95.7102 248.12 95.2642 248.539 94.1172 248.099C93.2412 247.763 91.3982 247.205 90.0222 246.859C86.9062 246.077 88.8362 244.534 92.9602 244.511C95.0952 244.499 95.7102 244.967 95.7102 246.603ZM130.71 247.496C130.71 248.046 130.148 248.502 129.46 248.51C128.773 248.517 127.085 248.776 125.71 249.084C123.297 249.625 123.278 249.59 125.151 248.07C127.322 246.31 130.71 245.96 130.71 247.496ZM45.7432 252.246C45.7622 252.658 46.6492 254.043 47.7152 255.322C50.2882 258.409 52.3062 257.192 49.9612 253.967C48.3072 251.692 45.6712 250.616 45.7432 252.246ZM53.7102 252.425C53.7102 253.963 56.8002 256.558 57.8562 255.906C58.4392 255.546 58.1382 254.522 57.1202 253.397C55.2772 251.36 53.7102 250.913 53.7102 252.425ZM153.063 262.151C158.548 266.741 165.065 271.113 169.341 273.071C175.748 276.005 176.797 276.905 179.668 281.923C183.331 288.326 185.665 289.937 190.082 289.114C193.012 288.568 193.087 288.625 191.269 290.014C190.201 290.829 188.574 291.496 187.654 291.496C185.117 291.496 180.878 287.745 178.789 283.651C176.311 278.797 173.699 276.567 167.568 274.071C162.875 272.161 142.847 256.968 142.752 255.246C142.666 253.699 144.15 254.693 153.063 262.151ZM52.1032 268.078C53.1962 270.927 52.6772 272.037 51.1782 270.055C50.3712 268.987 49.7102 267.75 49.7102 267.305C49.7102 265.873 51.4762 266.444 52.1032 268.078ZM100.71 269.402C100.71 271.191 91.0392 273.69 82.0722 274.218C72.5352 274.78 63.3202 273.936 64.1602 272.576C64.4292 272.141 67.0262 272.187 69.9302 272.678C78.1942 274.075 91.4222 272.307 100.46 268.599C100.598 268.542 100.71 268.904 100.71 269.402ZM423.071 269.191C423.85 269.969 411.819 282.496 410.294 282.496C409.097 282.496 403.71 277.433 403.71 276.309C403.71 274.846 406.037 275.455 408.194 277.481L410.307 279.466L415.725 273.981C421.263 268.373 421.863 267.982 423.071 269.191ZM46.9962 272.48C47.2862 273.589 47.1632 274.496 46.7232 274.496C45.8942 274.496 44.7102 272.061 44.7102 270.355C44.7102 268.725 46.4332 270.327 46.9962 272.48ZM131.529 276.367L128.213 279.33L132.908 293.663C137.242 306.892 141.762 323.45 145.421 339.496C146.236 343.071 147.587 346.534 148.423 347.191C149.427 347.981 150.157 351.005 150.576 356.111C150.935 360.484 151.706 363.999 152.352 364.213C153.176 364.486 153.346 362.209 152.961 356.043L152.428 347.496H159.948C167.319 347.496 167.491 347.554 168.68 350.424C170.356 354.47 172.592 356.266 179.373 359.013C185.936 361.673 187.477 364.48 183.53 366.592C179.658 368.664 162.874 369.013 158.338 367.116C153.664 365.161 153.71 365.163 153.71 366.835C153.71 369.354 158.725 370.496 169.789 370.496C182.494 370.496 187.272 369.089 188.286 365.049C189.159 361.573 187.565 359.904 180.174 356.553C171.878 352.791 167.482 346.496 173.151 346.496C174.494 346.496 175.89 346.013 176.255 345.423C176.62 344.833 174.76 333.512 172.123 320.266L167.327 296.182L161.569 290.699C155.205 284.64 148.064 279.279 142.71 276.542C136.157 273.192 135.1 273.175 131.529 276.367ZM142.053 292.382C142.673 293.144 143.212 294.269 143.252 294.882C143.292 295.494 143.674 296.756 144.101 297.685C144.528 298.614 144.432 300.171 143.887 301.144C143.153 302.456 143.324 303.256 144.554 304.244C146.061 305.456 146.03 305.549 144.21 305.273C142.521 305.018 142.181 304.128 142.026 299.56C141.899 295.834 141.354 293.877 140.276 293.273C138.639 292.357 138.171 289.373 139.46 288.073C139.872 287.657 140.371 288.144 140.568 289.156C140.764 290.168 141.433 291.619 142.053 292.382ZM24.7102 298.996V306.496H33.7102C38.6602 306.496 42.7102 306.825 42.7102 307.226C42.7102 307.628 38.3882 320.031 33.1052 334.788C24.4562 358.952 22.8462 364.813 25.6512 361.929C26.3942 361.166 31.4432 347.37 44.9332 309.246C45.4682 307.734 46.5372 306.496 47.3082 306.496C48.3862 306.496 48.7102 304.763 48.7102 298.996V291.496H36.7102H24.7102V298.996ZM328.21 293.364C326.56 294.387 322.218 298.345 318.56 302.159C311.038 310.004 309.053 314.631 310.13 321.814C310.871 326.749 315.81 334.496 318.216 334.496C320.307 334.496 320.076 333.138 317.608 330.903C314.276 327.888 312.707 323.975 312.752 318.796C312.806 312.562 314.675 309.46 323.363 301.175C329.651 295.18 330.917 294.394 333.831 294.675C342.462 295.51 346.612 314.781 340.502 325.652C338.813 328.657 336.814 330.299 332.105 332.546C328.705 334.169 325.72 335.496 325.472 335.496C325.223 335.496 326.274 333.009 327.808 329.968C331.349 322.947 332.23 317.15 330.526 312.073C328.943 307.354 325.899 305.504 327.307 310.116C327.791 311.7 328.157 315.333 328.12 318.189C328.028 325.359 324.59 331.54 314.012 343.553C304.317 354.562 305.806 354.165 298.552 347.676C296.016 345.408 295.959 345.144 297.302 341.929C301.057 332.942 297.503 323.847 287.31 316.36C280.751 311.543 276.385 312.852 273.852 320.395C272.306 324.998 272.411 333.847 274.058 337.778C276.94 344.655 285.225 351.496 290.67 351.496C294.097 351.496 292.952 349.86 288.274 348.073C280.797 345.218 274.736 336.659 274.716 328.928C274.705 325.125 277.707 316.711 279.29 316.104C282.399 314.911 290.979 321.143 293.776 326.625C294.902 328.833 295.704 332.416 295.695 335.206C295.668 343.462 292.94 344.685 290.04 337.742C289.094 335.478 288.229 334.577 287.604 335.202C285.714 337.092 288.809 342.004 296.398 349.16L303.996 356.324L302.353 360.43C301.449 362.689 300.71 366.102 300.71 368.016V371.496H290.71C282.443 371.496 280.71 371.759 280.71 373.011C280.71 374.336 284.354 374.493 309.711 374.261C328.199 374.092 338.712 373.634 338.714 372.996C338.715 372.392 333.364 371.886 325.213 371.718C312.62 371.458 311.71 371.309 311.71 369.503C311.71 366.55 315.424 365.185 322.868 365.402C332.039 365.67 337.459 364.042 341.436 359.826C344.087 357.014 344.71 355.537 344.71 352.06C344.71 346.901 341.972 342.932 337.779 342.011C331.733 340.683 321.904 348.67 318.016 358.07C316.996 360.538 315.202 362.862 313.84 363.483C312.526 364.081 311.342 364.442 311.208 364.283C310.211 363.107 307.71 357.326 307.71 356.198C307.71 355.43 310.573 351.446 314.072 347.345C320.007 340.389 321.008 339.667 328.992 336.58C341.701 331.667 345.71 326.303 345.71 314.21C345.71 297.354 337.516 287.593 328.21 293.364ZM215.277 305.132C217.275 306.441 219.018 306.62 223.992 306.03C236.225 304.577 237.175 304.69 237.516 307.634C237.87 310.692 232.939 315.207 223.71 320.274C214.859 325.135 214.219 325.16 210.216 320.811C208.285 318.713 206.453 316.213 206.144 315.257C205.574 313.493 210.547 303.499 211.995 303.497C212.427 303.496 213.904 304.232 215.277 305.132ZM228.71 307.747L226.21 308.872L229.044 309.258C232.506 309.731 235.056 308.865 234.214 307.503C233.435 306.242 231.907 306.309 228.71 307.747ZM158.202 356.656C157.468 358.568 159.315 363.496 160.765 363.496C161.484 363.496 161.63 362.364 161.184 360.246C160.343 356.253 158.984 354.618 158.202 356.656ZM307.649 363.237C308.579 366.605 308.437 367.224 306.226 369.434C304.876 370.785 303.46 371.579 303.08 371.199C302.16 370.28 304.607 359.496 305.735 359.496C306.219 359.496 307.081 361.18 307.649 363.237ZM9.21722 369.485C8.86822 370.049 9.18422 370.741 9.91922 371.023C12.4702 372.002 55.7122 371.032 55.7122 369.996C55.7122 368.604 10.0712 368.103 9.21722 369.485ZM195.398 369.142C193.407 371.132 196.404 371.496 214.793 371.496C230.415 371.496 234.784 371.218 234.461 370.246C234.152 369.318 229.163 368.926 215.065 368.725C204.626 368.576 195.776 368.764 195.398 369.142Z" fill="black"/>
</svg>
