<svg width="107" height="95" viewBox="0 0 107 95" fill="none" xmlns="http://www.w3.org/2000/svg">
<path fill-rule="evenodd" clip-rule="evenodd" d="M35.8857 1.93407C19.1107 2.92407 4.56373 3.49706 3.55773 3.20606C1.80973 2.70006 1.76173 3.73806 2.45373 27.2661C2.98973 45.4931 2.83973 54.2031 1.87573 60.9331L0.57373 70.0111L3.47973 72.8311C6.31773 75.5851 6.54573 75.6311 13.2677 74.7791C17.0537 74.2991 20.4617 74.0991 20.8437 74.3351C21.2247 74.5701 22.3857 78.4801 23.4227 83.0241C25.2577 91.0581 27.7777 95.3701 30.1987 94.6161C31.2897 94.2761 35.0007 84.0231 36.3257 77.6911C36.8407 75.2241 37.3607 74.9761 43.1347 74.4421C46.5727 74.1241 61.6917 73.4321 76.7327 72.9041C94.7367 72.2721 104.56 71.5471 105.483 70.7801C107.274 69.2941 107.354 55.3861 105.74 25.8611C104.831 9.21807 104.206 3.86007 102.976 2.14207C101.432 -0.0109348 100.875 -0.0729351 83.8857 0.0280649C74.2607 0.0850649 52.6607 0.943065 35.8857 1.93407ZM99.2487 5.73207C100.474 13.3901 102.064 64.0831 101.109 65.0381C100.118 66.0291 38.7437 68.2601 35.9897 67.4051C32.9857 66.4721 31.5207 68.6971 29.3207 77.5341C28.1117 82.3891 26.8827 85.6861 26.5877 84.8611C26.2937 84.0361 25.0877 80.0501 23.9077 76.0031L21.7627 68.6441L12.5737 69.0031L3.38573 69.3611L3.59273 66.8611C5.06673 49.0221 5.31073 40.5411 4.80073 24.8611C4.46973 14.6861 4.24073 6.28806 4.29173 6.19906C4.58073 5.69906 73.5657 2.10506 85.0077 1.99406L98.6297 1.86107L99.2487 5.73207Z" fill="black"/>
</svg>
